<?xml version="1.0" encoding="UTF-8" standalone="no"?>
<!-- Created with Inkscape (http://www.inkscape.org/) -->

<svg
   width="79.010933mm"
   height="79.680664mm"
   viewBox="0 0 79.010931 79.680661"
   version="1.1"
   id="svg5"
   inkscape:version="1.1 (c4e8f9e, 2021-05-24)"
   sodipodi:docname="bwigd-favi.svg"
   xmlns:inkscape="http://www.inkscape.org/namespaces/inkscape"
   xmlns:sodipodi="http://sodipodi.sourceforge.net/DTD/sodipodi-0.dtd"
   xmlns="http://www.w3.org/2000/svg"
   xmlns:svg="http://www.w3.org/2000/svg">
  <sodipodi:namedview
     id="namedview7"
     pagecolor="#ffffff"
     bordercolor="#999999"
     borderopacity="1"
     inkscape:pageshadow="0"
     inkscape:pageopacity="0"
     inkscape:pagecheckerboard="0"
     inkscape:document-units="mm"
     showgrid="false"
     fit-margin-top="0"
     fit-margin-left="0"
     fit-margin-right="0"
     fit-margin-bottom="0"
     inkscape:zoom="0.44182415"
     inkscape:cx="-41.871863"
     inkscape:cy="445.87875"
     inkscape:window-width="1312"
     inkscape:window-height="788"
     inkscape:window-x="0"
     inkscape:window-y="25"
     inkscape:window-maximized="0"
     inkscape:current-layer="layer2" />
  <defs
     id="defs2" />
  <g
     inkscape:groupmode="layer"
     id="layer2"
     inkscape:label="Layer 2"
     transform="translate(4.7299991,3.8228831)">
    <rect
       style="fill:#3cb76b;fill-opacity:1;stroke-width:0.113862"
       id="rect1133"
       width="79.010933"
       height="79.680664"
       x="-4.7299991"
       y="-3.8228831" />
  </g>
  <g
     inkscape:label="Layer 1"
     inkscape:groupmode="layer"
     id="layer1"
     transform="translate(-1.8774455,-54.625441)">
    <path
       style="fill:#000000;stroke-width:0.0841796"
       d="m 12.332696,130.5056 c -3.6671621,-1.2419 -5.7382825,-4.6524 -5.7251897,-9.42763 0.019278,-7.03118 4.7002637,-12.22873 8.0218767,-8.90712 1.030605,1.03061 1.078896,1.64914 0.09955,1.27512 -0.787633,-0.3008 -1.982122,0.14927 -2.922031,1.10098 -4.3950932,4.45027 -4.2940929,13.98887 0.142669,13.47393 0.855207,-0.0993 2.229782,-1.20865 3.577712,-2.88752 0.359661,-0.44796 0.957657,-1.1386 1.328881,-1.53475 2.554864,-2.72643 8.860248,-14.35139 10.270719,-18.93567 0.103487,-0.33635 0.989751,-2.38885 1.846724,-4.27683 1.619672,-3.568266 2.025535,-4.504946 3.198647,-7.382046 0.660728,-1.62046 1.714592,-4.12059 2.34192,-5.55585 2.28519,-5.22829 2.820245,-6.51812 3.809815,-9.18415 0.684569,-1.84431 0.767143,-2.23858 0.368442,-1.75921 -0.579495,0.69675 -1.322984,1.43724 -2.178806,2.17001 -0.486137,0.41624 -1.622562,1.44576 -2.525389,2.28781 -0.902827,0.84206 -1.94455,1.79915 -2.31494,2.12686 -0.37039,0.32771 -2.343235,2.25971 -4.384099,4.29332 -6.426191,6.40337 -8.197801,9.29897 -7.080918,11.57338 1.380246,2.810716 5.484667,-0.004 4.35188,-2.98393 -0.387316,-1.01904 0.189198,-1.2202 1.647849,-0.57497 3.644556,1.61216 0.509675,6.300686 -4.039272,6.041126 -5.739871,-0.3275 -8.708822,-6.210966 -5.254388,-10.412426 0.542859,-0.66025 1.71182,-1.53849 4.726326,-3.55087 1.675142,-1.11827 3.348759,-2.26129 3.719149,-2.54004 2.202492,-1.65758 4.703047,-3.70222 6.3588,-5.19943 1.043505,-0.94358 2.123108,-1.90492 2.39912,-2.13631 0.276012,-0.2314 1.070053,-0.93225 1.764535,-1.55746 0.694482,-0.62521 1.545539,-1.38291 1.891237,-1.68378 0.969591,-0.84386 4.27922,-4.0642 5.287184,-5.14454 1.29627,-1.38936 3.095682,-3.3808 3.718289,-4.11509 0.294427,-0.34724 1.0148,-1.14659 1.600829,-1.77633 0.58603,-0.62975 1.376465,-1.53889 1.756526,-2.02032 0.380059,-0.48142 0.898642,-1.13115 1.152407,-1.44385 0.253764,-0.31269 0.461389,-0.62389 0.461389,-0.69155 0,-0.25964 0.508294,-0.71814 0.796135,-0.71814 0.735817,0 1.250394,1.3418 0.850614,2.21804 -0.06656,0.14589 -0.17644,0.56831 -0.24417,0.9387 -0.178055,0.97371 -0.79137,2.59736 -1.780685,4.71406 -2.339456,5.00541 -3.117341,7.029 -2.70201,7.029 0.314351,0 2.793384,-2.30614 5.521326,-5.13625 5.662151,-5.87421 8.952364,-8.44326 11.700969,-9.13632 2.455005,-0.61903 4.698931,2.29131 4.164771,5.40164 -0.603265,3.51272 -2.939833,8.03246 -7.072168,13.68004 -0.461228,0.63035 -1.368928,1.87711 -2.017111,2.77057 -3.321094,4.57782 -5.944344,7.39674 -9.622581,10.34035 -0.752433,0.60216 -1.546825,1.25253 -1.765315,1.44526 -0.554618,0.48924 -1.876467,1.35609 -2.628014,1.7234 -0.631347,0.30857 -0.631347,0.30857 -0.210449,0.26125 0.447145,-0.0503 1.772349,-0.16018 3.703904,-0.30719 0.648183,-0.0493 1.633085,-0.16052 2.188671,-0.2471 4.289429,-0.66841 8.747814,-0.89019 11.280071,-0.56113 4.181724,0.5434 7.566374,1.84607 8.888822,3.42109 0.204016,0.24298 0.592334,0.69083 0.862928,0.99521 2.272181,2.555896 3.310919,8.896646 2.073723,12.658566 -0.280493,0.85289 -1.46948,3.18666 -1.990201,3.90641 -0.26404,0.36496 -0.847271,1.17495 -1.296069,1.79999 -1.198975,1.66979 -3.154825,3.83029 -4.052656,4.47671 -0.277775,0.19999 -1.108064,0.82588 -1.845088,1.39086 -3.586115,2.74902 -11.541029,5.94812 -17.951844,7.21941 -6.065018,1.20272 -13.815964,0.69552 -16.791528,-1.09878 -0.261584,-0.15774 -0.521992,-0.2869 -0.578686,-0.28702 -0.154898,-3.3e-4 -1.035285,-0.89485 -1.491496,-1.51545 -3.715878,-5.05483 -1.144455,-12.40936 5.061106,-14.47527 4.801015,-1.59832 9.000435,-0.59602 10.129876,2.41776 0.356208,0.9505 0.192189,2.39842 -0.335707,2.96354 -0.326816,0.34986 -0.327365,0.34962 -1.15883,-0.48773 -3.474063,-3.49869 -10.678841,-2.40218 -12.818003,1.9508 -0.933737,1.90006 -0.620355,3.29431 1.041271,4.63268 2.374935,1.9129 7.685929,1.74157 14.187653,-0.45768 0.675841,-0.22861 1.531848,-0.50694 1.902239,-0.61852 4.630168,-1.39479 10.02341,-3.57102 12.540912,-5.06039 4.38616,-2.59488 8.435817,-6.38068 10.038766,-9.3847 1.090673,-2.04399 1.395496,-4.72117 0.681799,-5.98804 -1.894559,-3.362986 -3.294581,-4.484226 -6.46764,-5.179706 -1.875992,-0.4112 -7.817982,-0.35819 -10.354095,0.0924 -4.64809,0.82575 -8.123639,1.57288 -10.396185,2.23486 -6.422991,1.870956 -8.488029,2.687286 -8.803736,3.480186 -0.227045,0.57024 -3.664274,7.3987 -4.266026,8.47497 -6.996348,12.51341 -11.676886,18.60016 -14.962057,19.45724 -0.994255,0.25939 -2.505429,0.21693 -3.430654,-0.0964 z M 42.452748,89.688694 c 2.6712,-1.30567 8.348357,-6.67233 13.590558,-12.84726 0.671333,-0.79078 1.512448,-1.77716 1.869146,-2.19196 2.863198,-3.32959 7.700896,-9.93643 8.665211,-11.83408 1.684172,-3.31423 -4.017612,-0.46239 -9.566291,4.78474 -1.967861,1.86091 -4.721752,4.67039 -5.349265,5.45723 -0.256765,0.32196 -0.770506,0.9642 -1.141646,1.42718 -3.861363,4.81695 -6.922565,9.38754 -9.327844,13.92713 -0.390329,0.73669 -0.538827,1.09889 -0.500298,1.22028 0.157684,0.49682 0.816639,0.51806 1.760429,0.0567 z"
       id="path21"
       sodipodi:nodetypes="csssscssssssssssscscscsscscsscsssssssssssssssssscccssssssssssssssscssscssssccssscccssssscsscc" />
  </g>
</svg>
