<?xml version="1.0" encoding="UTF-8" standalone="no"?>
<!-- Created with Inkscape (http://www.inkscape.org/) -->

<svg
   width="197.67619mm"
   height="94.609306mm"
   viewBox="0 0 197.67619 94.609303"
   version="1.1"
   id="svg5"
   inkscape:version="1.1 (c4e8f9e, 2021-05-24)"
   sodipodi:docname="bwigd-text.svg"
   xmlns:inkscape="http://www.inkscape.org/namespaces/inkscape"
   xmlns:sodipodi="http://sodipodi.sourceforge.net/DTD/sodipodi-0.dtd"
   xmlns="http://www.w3.org/2000/svg"
   xmlns:svg="http://www.w3.org/2000/svg">
  <sodipodi:namedview
     id="namedview7"
     pagecolor="#ffffff"
     bordercolor="#999999"
     borderopacity="1"
     inkscape:pageshadow="0"
     inkscape:pageopacity="0"
     inkscape:pagecheckerboard="0"
     inkscape:document-units="mm"
     showgrid="false"
     fit-margin-top="0"
     fit-margin-left="0"
     fit-margin-right="0"
     fit-margin-bottom="0"
     inkscape:zoom="0.3345351"
     inkscape:cx="594.85538"
     inkscape:cy="122.55814"
     inkscape:window-width="1312"
     inkscape:window-height="788"
     inkscape:window-x="0"
     inkscape:window-y="25"
     inkscape:window-maximized="0"
     inkscape:current-layer="layer1" />
  <defs
     id="defs2" />
  <g
     inkscape:label="Layer 1"
     inkscape:groupmode="layer"
     id="layer1"
     transform="translate(-6.6074446,-53.904346)">
    <path
       style="fill:#000000;stroke-width:0.0841796"
       d="m 125.43679,148.35808 c -3.67182,-0.99066 -7.20393,-4.10633 -8.02291,-7.077 -0.74115,-2.68837 -0.16884,-6.67152 1.30788,-9.10246 2.7994,-4.60831 7.16343,-7.42566 15.06144,-9.72344 9.33351,-2.71542 10.40523,-3.18344 12.93393,-5.64828 1.47116,-1.434 2.41028,-3.5923 2.99483,-6.88273 0.24534,-1.38105 0.18075,-8.20688 -0.0962,-10.166446 -0.34755,-2.45905 -0.41267,-2.42845 -2.64591,1.243406 -0.87293,1.43526 -2.03304,3.31036 -2.57801,4.16689 -0.54498,0.85653 -1.23731,1.95507 -1.53851,2.44121 -2.11392,3.41182 -4.77215,6.24636 -6.47985,6.90964 -1.93013,0.74968 -4.19976,-0.39644 -5.34807,-2.70066 -0.14996,-0.30094 -0.29579,-0.56611 -0.32406,-0.58926 -0.13199,-0.1081 -0.32202,-0.60999 -0.47809,-1.26269 -2.05746,-8.60418 2.72069,-19.798466 11.1661,-26.160016 3.63485,-2.73797 6.5746,-1.81473 7.29033,2.28956 0.18969,1.08782 -0.0169,2.07413 -0.28616,1.36599 -0.36664,-0.96436 -2.50422,-1.35266 -3.83291,-0.69628 -2.36921,1.17042 -5.01925,5.87105 -7.31362,12.97292 -0.93925,2.907276 -1.01329,7.483506 -0.14159,8.750476 1.41143,2.05144 3.73401,-0.0519 7.32288,-6.63155 0.1977,-0.36246 0.64342,-1.10113 0.99049,-1.64151 0.58212,-0.906326 1.63281,-2.954666 2.29594,-4.475946 0.15136,-0.34724 0.63076,-1.34273 1.06534,-2.21219 0.43459,-0.86946 0.93801,-1.94907 1.11872,-2.39912 2.04346,-5.08909 5.67097,-11.12972 7.36161,-12.25875 0.43781,-0.29238 0.64364,-0.17051 0.3954,0.23412 -0.78651,1.28202 -1.63199,3.524 -1.9462,5.16082 -0.0961,0.50082 -0.23234,1.1568 -0.30268,1.45774 -0.5146,2.20182 -0.64872,4.98431 -0.83388,17.298916 -0.023,1.52786 -0.0783,3.38402 -0.12299,4.1248 -0.0447,0.74078 -0.10372,1.95297 -0.13122,2.69375 -0.0971,2.61722 -0.62228,4.13376 -2.13707,6.1716 -1.61936,2.17854 -6.04913,5.04385 -9.53121,6.1651 -0.58896,0.18965 -1.08254,0.37423 -1.09683,0.41018 -0.0143,0.0359 -0.82147,0.46811 -1.79375,0.96036 -9.90446,5.0145 -15.20173,12.83788 -13.81671,20.40545 0.37,2.02158 1.41637,3.72605 2.28742,3.72605 0.54392,0 0.51817,0.2115 -0.0623,0.5123 -0.6911,0.35809 -1.77727,0.4245 -2.73152,0.16705 z M 92.681777,130.34852 c -2.754559,-2.48051 -3.811813,-4.14658 -6.310274,-9.94399 -1.175383,-2.72737 -2.394134,-6.93219 -2.7571,-9.5123 -0.0749,-0.53243 -0.228928,-1.57416 -0.342279,-2.31494 -1.160595,-7.58476 -1.218511,-15.138496 -0.156515,-20.413556 0.900563,-4.4732 4.206779,-13.04547 6.575864,-17.04974 0.138054,-0.23335 0.619915,-1.12355 1.07079,-1.97822 1.061497,-2.01215 1.214948,-2.26948 1.353356,-2.26948 0.232083,0 0.209885,0.20015 -0.207629,1.87229 -0.428837,1.7175 -0.534002,2.25331 -1.226927,6.25104 -1.696691,9.78893 -1.982152,18.49701 -0.885814,27.021656 0.08931,0.69448 0.186197,1.50892 0.21529,1.80986 0.07618,0.78793 0.238245,1.61678 0.632088,3.23274 0.343486,1.40932 0.435604,1.6467 1.65296,4.25925 0.20363,0.43701 1.038549,1.2627 1.276811,1.2627 0.08191,0 0.245476,-0.38666 0.42733,-1.01016 0.04726,-0.16205 0.279072,-1.15942 0.515128,-2.21639 1.557879,-6.97543 5.122458,-17.212806 6.394064,-18.363606 0.0938,-0.0849 0.17049,-0.20059 0.17049,-0.2572 0,-0.0566 0.0518,-0.1459 0.1151,-0.19844 0.33145,-0.27508 0.46327,0.61117 0.56204,3.77882 0.0965,3.09557 0.22563,4.77885 0.55207,7.197356 0.41239,3.0554 2.51429,7.78547 3.74167,8.42017 0.31817,0.16454 0.33222,0.11202 0.42043,-1.57236 0.22485,-4.29356 1.73499,-10.409176 3.26372,-13.217076 0.35487,-0.65181 0.41751,-0.66444 1.54836,-0.31201 1.13549,0.35387 1.12635,0.4352 -0.4855,4.32037 -0.17199,0.41455 -0.45676,1.342626 -0.63281,2.062396 -0.41223,1.68525 -0.75034,2.84531 -1.07362,3.6836 -0.37808,0.98038 -0.69298,2.79904 -1.02729,5.93291 -0.0904,0.84764 -0.19897,1.84421 -0.24122,2.2146 -0.25292,2.21717 -0.16752,10.47142 0.1226,11.85063 0.12067,0.57361 0.0524,1.07095 -0.14693,1.07095 -0.15107,0 -1.1668,-1.05209 -2.01959,-2.09186 -4.02627,-4.90912 -5.845757,-8.48594 -7.906971,-15.54378 -0.818378,-2.80221 -0.760235,-2.7537 -1.30422,-1.08822 -0.941769,2.88331 -1.830285,7.19086 -2.140007,10.37476 -0.09315,0.95755 -0.279931,2.85848 -0.415073,4.22429 -0.231578,2.34049 -0.324411,4.50033 -0.350061,8.14438 -0.0089,1.25927 0.0036,1.25459 -0.980331,0.36856 z m -80.349081,0.15708 c -3.6671621,-1.2419 -5.7382825,-4.6524 -5.7251897,-9.42763 0.019278,-7.03118 4.7002637,-12.22873 8.0218767,-8.90712 1.030605,1.03061 1.078896,1.64914 0.09955,1.27512 -0.787633,-0.3008 -1.982122,0.14927 -2.922031,1.10098 -4.3950932,4.45027 -4.2940929,13.98887 0.142669,13.47393 0.855207,-0.0993 2.229782,-1.20865 3.577712,-2.88752 0.359661,-0.44796 0.957657,-1.1386 1.328881,-1.53475 2.554864,-2.72643 8.860248,-14.35139 10.270719,-18.93567 0.103487,-0.33635 0.989751,-2.38885 1.846724,-4.27683 1.619672,-3.568266 2.025535,-4.504946 3.198647,-7.382046 0.660728,-1.62046 1.714592,-4.12059 2.34192,-5.55585 2.28519,-5.22829 2.820245,-6.51812 3.809815,-9.18415 0.684569,-1.84431 0.767143,-2.23858 0.368442,-1.75921 -0.579495,0.69675 -1.322984,1.43724 -2.178806,2.17001 -0.486137,0.41624 -1.622562,1.44576 -2.525389,2.28781 -0.902827,0.84206 -1.94455,1.79915 -2.31494,2.12686 -0.37039,0.32771 -2.343235,2.25971 -4.384099,4.29332 -6.426191,6.40337 -8.197801,9.29897 -7.080918,11.57338 1.380246,2.810716 5.484667,-0.004 4.35188,-2.98393 -0.387316,-1.01904 0.189198,-1.2202 1.647849,-0.57497 3.644556,1.61216 0.509675,6.300686 -4.039272,6.041126 -5.739871,-0.3275 -8.708822,-6.210966 -5.254388,-10.412426 0.542859,-0.66025 1.71182,-1.53849 4.726326,-3.55087 1.675142,-1.11827 3.348759,-2.26129 3.719149,-2.54004 2.202492,-1.65758 4.703047,-3.70222 6.3588,-5.19943 1.043505,-0.94358 2.123108,-1.90492 2.39912,-2.13631 0.276012,-0.2314 1.070053,-0.93225 1.764535,-1.55746 0.694482,-0.62521 1.545539,-1.38291 1.891237,-1.68378 0.969591,-0.84386 4.27922,-4.0642 5.287184,-5.14454 1.29627,-1.38936 3.095682,-3.3808 3.718289,-4.11509 0.294427,-0.34724 1.0148,-1.14659 1.600829,-1.77633 0.58603,-0.62975 1.376465,-1.53889 1.756526,-2.02032 0.380059,-0.48142 0.898642,-1.13115 1.152407,-1.44385 0.253764,-0.31269 0.461389,-0.62389 0.461389,-0.69155 0,-0.25964 0.508294,-0.71814 0.796135,-0.71814 0.735817,0 1.250394,1.3418 0.850614,2.21804 -0.06656,0.14589 -0.17644,0.56831 -0.24417,0.9387 -0.178055,0.97371 -0.79137,2.59736 -1.780685,4.71406 -2.339456,5.00541 -3.117341,7.029 -2.70201,7.029 0.314351,0 2.793384,-2.30614 5.521326,-5.13625 5.662151,-5.87421 8.952364,-8.44326 11.700969,-9.13632 2.455005,-0.61903 4.698931,2.29131 4.164771,5.40164 -0.603265,3.51272 -2.939833,8.03246 -7.072168,13.68004 -0.461228,0.63035 -1.368928,1.87711 -2.017111,2.77057 -3.321094,4.57782 -5.944344,7.39674 -9.622581,10.34035 -0.752433,0.60216 -1.546825,1.25253 -1.765315,1.44526 -0.554618,0.48924 -1.876467,1.35609 -2.628014,1.7234 -0.631347,0.30857 -0.631347,0.30857 -0.210449,0.26125 0.447145,-0.0503 1.772349,-0.16018 3.703904,-0.30719 0.648183,-0.0493 1.633085,-0.16052 2.188671,-0.2471 4.289429,-0.66841 8.747814,-0.89019 11.280071,-0.56113 4.181724,0.5434 7.566374,1.84607 8.888822,3.42109 0.204016,0.24298 0.592334,0.69083 0.862928,0.99521 2.272181,2.555896 3.310919,8.896646 2.073723,12.658566 -0.280493,0.85289 -1.46948,3.18666 -1.990201,3.90641 -0.26404,0.36496 -0.847271,1.17495 -1.296069,1.79999 -1.198975,1.66979 -3.154825,3.83029 -4.052656,4.47671 -0.277775,0.19999 -1.108064,0.82588 -1.845088,1.39086 -3.586115,2.74902 -11.541029,5.94812 -17.951844,7.21941 -6.065018,1.20272 -13.815964,0.69552 -16.791528,-1.09878 -0.261584,-0.15774 -0.521992,-0.2869 -0.578686,-0.28702 -0.154898,-3.3e-4 -1.035285,-0.89485 -1.491496,-1.51545 -3.715878,-5.05483 -1.144455,-12.40936 5.061106,-14.47527 4.801015,-1.59832 9.000435,-0.59602 10.129876,2.41776 0.356208,0.9505 0.192189,2.39842 -0.335707,2.96354 -0.326816,0.34986 -0.327365,0.34962 -1.15883,-0.48773 -3.474063,-3.49869 -10.678841,-2.40218 -12.818003,1.9508 -0.933737,1.90006 -0.620355,3.29431 1.041271,4.63268 2.374935,1.9129 7.685929,1.74157 14.187653,-0.45768 0.675841,-0.22861 1.531848,-0.50694 1.902239,-0.61852 4.630168,-1.39479 10.02341,-3.57102 12.540912,-5.06039 4.38616,-2.59488 8.435817,-6.38068 10.038766,-9.3847 1.090673,-2.04399 1.395496,-4.72117 0.681799,-5.98804 -1.894559,-3.362986 -3.294581,-4.484226 -6.46764,-5.179706 -1.875992,-0.4112 -7.817982,-0.35819 -10.354095,0.0924 -4.64809,0.82575 -8.123639,1.57288 -10.396185,2.23486 -6.422991,1.870956 -8.488029,2.687286 -8.803736,3.480186 -0.227045,0.57024 -3.664274,7.3987 -4.266026,8.47497 -6.996348,12.51341 -11.676886,18.60016 -14.962057,19.45724 -0.994255,0.25939 -2.505429,0.21693 -3.430654,-0.0964 z M 42.452748,89.688694 c 2.6712,-1.30567 8.348357,-6.67233 13.590558,-12.84726 0.671333,-0.79078 1.512448,-1.77716 1.869146,-2.19196 2.863198,-3.32959 7.700896,-9.93643 8.665211,-11.83408 1.684172,-3.31423 -4.017612,-0.46239 -9.566291,4.78474 -1.967861,1.86091 -4.721752,4.67039 -5.349265,5.45723 -0.256765,0.32196 -0.770506,0.9642 -1.141646,1.42718 -3.861363,4.81695 -6.922565,9.38754 -9.327844,13.92713 -0.390329,0.73669 -0.538827,1.09889 -0.500298,1.22028 0.157684,0.49682 0.816639,0.51806 1.760429,0.0567 z M 165.39265,128.11033 c -2.33224,-0.50072 -4.88334,-2.2667 -6.00069,-4.15393 -1.80334,-3.04586 -1.26728,-9.17717 1.38875,-15.88419 0.78543,-1.98336 2.38424,-4.66596 4.05393,-6.80193 5.84519,-7.477566 10.30694,-11.187196 15.04494,-12.508796 1.95941,-0.54655 3.45755,-0.37746 5.51706,0.62267 0.8202,0.39831 0.88058,0.41527 0.90951,0.2555 0.61998,-3.42407 2.8861,-9.42915 6.5291,-17.30169 0.33208,-0.71763 1.05885,-2.3465 1.61504,-3.61972 2.56964,-5.88239 4.23317,-8.97048 4.94761,-9.18453 0.50996,-0.15279 2.23597,0.24332 3.23079,0.74144 0.8243,0.41275 1.65495,1.40395 1.65495,1.97484 0,1.37309 -0.34252,2.5177 -1.43901,4.80886 -0.50491,1.05503 -0.91802,1.94266 -0.91802,1.9725 0,0.0298 -0.26604,0.5345 -0.5912,1.12146 -0.32517,0.58696 -0.80093,1.55549 -1.05726,2.1523 -0.25634,0.5968 -0.81963,1.80483 -1.25175,2.68451 -0.43214,0.87968 -0.98273,2.14869 -1.22355,2.82002 -0.24082,0.67133 -0.65708,1.76988 -0.92503,2.44121 -0.8018,2.0089 -1.11836,3.03174 -3.06117,9.8911 -2.25709,7.96899 -3.33238,13.154276 -3.71826,17.930256 -0.0711,0.87968 -0.18995,2.12975 -0.26418,2.77793 -0.15327,1.33849 -0.11951,3.8268 0.0908,6.69228 0.0663,0.90283 0.14512,2.0582 0.17526,2.56748 0.13754,2.32425 0.88096,4.06581 1.74611,4.09052 3.37107,0.0963 7.59396,-3.45331 8.36054,-7.02755 0.39818,-1.85649 -0.8832,-4.57569 -1.90678,-4.04637 -0.30687,0.15869 -0.32994,0.1555 -0.32994,-0.0456 0,-0.0926 0.0353,-0.16836 0.0785,-0.16836 0.0432,0 0.10125,-0.0717 0.12904,-0.15924 0.21882,-0.68941 2.82178,-1.18645 3.71366,-0.70912 1.6015,0.85709 2.43529,3.63025 1.66961,5.55305 -1.03517,2.5996 -4.8747,6.2101 -8.62129,8.10702 -3.52479,1.78462 -6.73267,1.21334 -8.55176,-1.52296 -1.00927,-1.51816 -3.90682,-10.97154 -3.90682,-12.74616 0,-0.1597 -0.0284,-0.28865 -0.0631,-0.28657 -0.0808,0.005 -1.20994,1.79097 -2.09717,3.31751 -0.95933,1.65061 -1.75287,2.87892 -2.55849,3.96024 -0.37944,0.50929 -1.01321,1.38055 -1.40837,1.93613 -1.07048,1.50505 -1.79968,2.33973 -3.75837,4.30196 -3.08127,3.08686 -4.87604,3.94549 -7.20293,3.44593 z m 3.57933,-3.6263 c 1.18435,-0.38661 1.52303,-0.66672 3.18672,-2.63564 0.56131,-0.66429 1.20426,-1.42191 1.42876,-1.6836 0.2245,-0.26168 0.67612,-0.83565 1.0036,-1.27549 0.32748,-0.43984 0.78777,-1.02166 1.02287,-1.29294 1.55133,-1.79007 4.11634,-5.57285 5.05871,-7.46039 1.41819,-2.84062 2.74437,-6.58551 2.43993,-6.88995 -0.0196,-0.0196 -0.8231,0.73715 -1.78561,1.68161 -2.39902,2.354 -3.20623,2.99527 -4.59715,3.65212 -1.4828,0.70024 -3.00993,0.845 -2.13374,0.20226 3.74418,-2.7466 6.59611,-6.71071 8.23229,-11.442696 0.75892,-2.19486 0.88385,-3.61979 0.48175,-5.49471 -0.23311,-1.08694 -1.07966,-1.28906 -2.51286,-0.59995 -2.19537,1.05556 -4.49582,3.745 -7.80534,9.125126 -0.55537,0.90283 -1.23745,2.00137 -1.51574,2.44121 -3.88984,6.14795 -6.75651,14.76891 -6.25613,18.81415 0.33722,2.72621 1.48326,3.59946 3.75194,2.85889 z m -49.27244,-2.06575 c -1.42965,-0.2778 -2.99692,-2.19378 -3.54088,-4.32873 -0.31321,-1.22926 -0.38777,-2.15701 -0.3856,-4.7982 0.004,-5.00566 0.6863,-8.42235 2.60526,-13.04784 0.97506,-2.350296 2.40739,-6.459536 2.29183,-6.575096 -0.0191,-0.0191 -0.18276,0.0168 -0.36361,0.0799 -2.53199,0.88365 -7.69039,0.27243 -10.95488,-1.29804 -0.47369,-0.22788 -0.89807,-0.41432 -0.94307,-0.41432 -0.17677,0 -0.51063,-0.20147 -0.51063,-0.30814 0,-0.12466 0.45443,-0.15153 2.0624,-0.12192 0.50929,0.009 0.96386,-0.0131 1.01016,-0.05 0.1441,-0.11483 1.29336,-2.60919 1.87319,-4.06561 0.30415,-0.76393 1.05381,-2.37387 1.66592,-3.57764 0.61212,-1.20377 1.44287,-2.94628 1.84611,-3.87226 0.40324,-0.92598 1.16027,-2.63061 1.68229,-3.78808 1.0514,-2.33128 1.13183,-2.53257 1.78277,-4.46152 0.31925,-0.94603 0.55526,-1.87299 0.79301,-3.11465 0.18618,-0.97228 0.39289,-2.03294 0.45936,-2.35703 0.81042,-3.95113 -0.0425,-6.63536 -2.68519,-8.45078 -1.46281,-1.00487 -4.52866,-2.03459 -6.65985,-2.23682 -0.32409,-0.0308 -1.04383,-0.13226 -1.59941,-0.22556 -0.55559,-0.0933 -1.13327,-0.15012 -1.28374,-0.12626 -0.40568,0.0643 -0.23056,-0.24294 0.30039,-0.5271 0.63462,-0.33964 4.345,-0.85052 6.1604,-0.84823 5.21771,0.007 10.10898,2.44333 11.74017,5.84874 1.77617,3.7081 1.89084,5.84837 0.53218,9.9332 -1.94147,5.83707 -2.76084,7.22949 -9.64302,16.38734 -2.0933,2.78548 -3.73928,5.21355 -3.57204,5.2693 0.0555,0.0185 0.10091,0.0848 0.10091,0.14722 0,0.18892 0.27065,0.21901 1.57312,0.1749 2.20349,-0.0746 5.07569,-1.05162 9.94789,-3.38381 1.21766,-0.58286 1.42615,-0.62484 1.84251,-0.37099 0.33485,0.20416 0.33503,0.21877 0.0133,1.05317 -0.79474,2.06128 -1.12759,3.0552 -1.58079,4.7205 -0.27623,1.01503 -0.67875,2.39478 -0.89447,3.06612 -0.21572,0.67133 -0.50036,1.75093 -0.63252,2.39912 -0.13216,0.64818 -0.3717,1.727776 -0.53231,2.399116 -1.25882,5.26169 -1.74646,12.15667 -0.92403,13.06544 0.74866,0.82727 2.37509,-1.11649 3.25966,-3.89564 0.44823,-1.40826 0.51622,-1.3871 0.49715,0.15476 -0.0781,6.31296 -3.8339,12.22553 -7.33395,11.54542 z m 42.46623,-33.300506 c -0.10981,-0.1098 -0.0523,-0.37196 0.23223,-1.05941 0.74834,-1.8078 1.06599,-3.72911 1.06232,-6.42558 -0.004,-2.98439 -0.18622,-3.76735 -1.42803,-6.13808 -0.95563,-1.82439 -0.96901,-1.80009 0.81431,-1.47941 2.08259,0.3745 2.23104,0.46996 2.63216,1.69263 0.91434,2.78708 0.98506,5.03279 0.25039,7.9522 -0.57857,2.29913 -3.00524,6.01579 -3.56338,5.45765 z m -86.048798,-0.13885 c -0.338533,-0.10945 -0.336448,-0.1047 -0.182077,-0.41483 2.182856,-4.38539 2.01414,-9.95693 -0.415712,-13.72823 -0.506198,-0.78565 -0.268392,-0.93521 1.096252,-0.68946 0.816606,0.14706 1.558426,0.44988 2.124157,0.86711 1.113545,0.82124 1.898074,5.64164 1.338574,8.22463 -0.630701,2.91171 -2.834188,6.10512 -3.961194,5.74078 z m 52.275748,-5.6106 c -2.06214,-0.67459 -2.31688,-3.25427 -0.50394,-5.10326 2.28218,-2.32756 5.65001,-0.92788 4.79197,1.99155 -0.66756,2.27133 -2.59076,3.66694 -4.28803,3.11171 z"
       id="path21" />
  </g>
</svg>
