{
  "asset": {
    "version": "2.0",
    "generator": "v3d.GLTFExporter"
  },
  "scenes": [
    {
      "name": "AuxScene",
      "nodes": [
        0
      ]
    }
  ],
  "scene": 0,
  "nodes": [
    {
      "matrix": [
        0.1,
        0,
        0,
        0,
        0,
        -0.1,
        5.665538897647979e-17,
        0,
        0,
        -5.665538897647979e-17,
        -0.1,
        0,
        0,
        0,
        0,
        1
      ],
      "name": "Merged Mesh",
      "mesh": 0
    }
  ],
  "bufferViews": [
    {
      "buffer": 0,
      "byteOffset": 0,
      "byteLength": 327132,
      "target": 34962,
      "byteStride": 12
    },
    {
      "buffer": 0,
      "byteOffset": 327132,
      "byteLength": 218088,
      "target": 34962,
      "byteStride": 8
    },
    {
      "buffer": 0,
      "byteOffset": 545220,
      "byteLength": 327132,
      "target": 34962,
      "byteStride": 12
    },
    {
      "buffer": 0,
      "byteOffset": 872352,
      "byteLength": 436176,
      "target": 34962,
      "byteStride": 16
    },
    {
      "buffer": 0,
      "byteOffset": 1308528,
      "byteLength": 257472,
      "target": 34963
    }
  ],
  "buffers": [
    {
      "byteLength": 1566000,
      "uri": "data:application/octet-stream;base64,"
    }
  ],
  "accessors": [
    {
      "bufferView": 0,
      "componentType": 5126,
      "count": 27261,
      "max": [
        79.13467407226562,
        101.00041198730469,
        16
      ],
      "min": [
        -79.13467407226562,
        -101.00041198730469,
        -16
      ],
      "type": "VEC3"
    },
    {
      "bufferView": 1,
      "componentType": 5126,
      "count": 27261,
      "max": [
        2.0013773441314697,
        2
      ],
      "min": [
        -2.004692316055298,
        -2
      ],
      "type": "VEC2"
    },
    {
      "bufferView": 2,
      "componentType": 5126,
      "count": 27261,
      "max": [
        0.9999985694885254,
        1,
        1
      ],
      "min": [
        -1,
        -0.9999951124191284,
        -1
      ],
      "type": "VEC3"
    },
    {
      "bufferView": 3,
      "componentType": 5126,
      "count": 27261,
      "max": [
        1,
        1,
        0.9411594867706299,
        1
      ],
      "min": [
        -0.9921790361404419,
        -0.9295782446861267,
        -0.7484780550003052,
        -1
      ],
      "type": "VEC4"
    },
    {
      "bufferView": 4,
      "componentType": 5123,
      "count": 128736,
      "max": [
        27260
      ],
      "min": [
        0
      ],
      "type": "SCALAR"
    }
  ],
  "materials": [
    {
      "pbrMetallicRoughness": {
        "baseColorFactor": [
          0.800000011920929,
          0.800000011920929,
          0.800000011920929,
          1
        ],
        "metallicFactor": 1,
        "roughnessFactor": 1,
        "metallicRoughnessTexture": {
          "index": 0
        }
      },
      "name": "Chrome_rough_optimised"
    }
  ],
  "textures": [
    {
      "sampler": 0,
      "source": 0,
      "name": "Roughness2k_rgb.jpg.001"
    }
  ],
  "samplers": [
    {
      "magFilter": 9729,
      "minFilter": 9987,
      "wrapS": 10497,
      "wrapT": 10497
    }
  ],
  "images": [
    {
      "mimeType": "image/jpeg",
      "uri": "data:image/jpeg;base64,"
    }
  ],
  "meshes": [
    {
      "primitives": [
        {
          "mode": 4,
          "attributes": {
            "POSITION": 0,
            "TEXCOORD_0": 1,
            "NORMAL": 2,
            "TANGENT": 3
          },
          "indices": 4,
          "material": 0
        }
      ]
    }
  ]
}